<svg id="Group_9809" data-name="Group 9809" xmlns="http://www.w3.org/2000/svg" xmlns:xlink="http://www.w3.org/1999/xlink" width="198.812" height="55.988" viewBox="0 0 198.812 55.988">
  <defs>
    <clipPath id="clip-path">
      <rect id="Rectangle_3122" data-name="Rectangle 3122" width="198.812" height="55.988" fill="#444"/>
    </clipPath>
  </defs>
  <g id="Group_9805" data-name="Group 9805" clip-path="url(#clip-path)">
    <path id="Path_15437" data-name="Path 15437" d="M290.2,28.077a14.15,14.15,0,0,0-2.788-4.37,12.923,12.923,0,0,0-4.221-2.959,13.058,13.058,0,0,0-14.759,2.959,14.157,14.157,0,0,0-2.788,4.37,14.466,14.466,0,0,0,0,10.678,14.623,14.623,0,0,0,1.026,2.043,2.487,2.487,0,1,1,3.143,3.59,13.235,13.235,0,0,0,2.814,1.7,12.888,12.888,0,0,0,5.269,1.078,13.069,13.069,0,0,0,5.295-1.078,12.849,12.849,0,0,0,4.221-2.954A14.346,14.346,0,0,0,290.2,28.077m-3.621,10.34a.949.949,0,0,1-.946.951h-1.657a.949.949,0,0,1-.947-.951V31.277a.372.372,0,0,0-.636-.263l-8.942,8.937a.952.952,0,0,1-1.342,0l-1.166-1.17a.944.944,0,0,1,0-1.341l8.938-8.942a.369.369,0,0,0-.263-.631h-7.145a.95.95,0,0,1-.947-.951V25.263a.949.949,0,0,1,.947-.951h13.159a.949.949,0,0,1,.946.951Z" transform="translate(-164.535 -12.233)" fill="#444"/>
    <path id="Path_15438" data-name="Path 15438" d="M131.706,23.071a10.7,10.7,0,0,0-3.543-2.464,11.088,11.088,0,0,0-4.423-.885,9.81,9.81,0,0,0-5.133,1.388,11.843,11.843,0,0,0-3.108,2.667l-.078-2.979c0-.667-.315-1.075-.93-1.075h-1.761a.925.925,0,0,0-.963,1.022V45.919a1.6,1.6,0,0,0,.215.9,1.084,1.084,0,0,0,.967.386h1.4a1.02,1.02,0,0,0,.914-.386,1.609,1.609,0,0,0,.216-.907V30.8a6.536,6.536,0,0,1,.665-2.9,8.106,8.106,0,0,1,1.754-2.38,7.9,7.9,0,0,1,10.96.075,7.8,7.8,0,0,1,1.674,2.429,7.32,7.32,0,0,1,.617,2.989V45.863a1.973,1.973,0,0,0,.174.939c.227.408.815.408,1.008.408h1.4c.356,0,1.183-.136,1.183-1.4V31.641a13.2,13.2,0,0,0-.854-4.787,11.514,11.514,0,0,0-2.348-3.783" transform="translate(-69.495 -12.263)" fill="#444"/>
    <path id="Path_15439" data-name="Path 15439" d="M9.182,40.6v1.4a.932.932,0,0,1-.587.976,3.158,3.158,0,0,1-1.022.152H6.764a10.932,10.932,0,0,1-2.6-.3,6.218,6.218,0,0,1-.824-.282,5.118,5.118,0,0,1-1.38-.892A5.564,5.564,0,0,1,.5,39.3,11.444,11.444,0,0,1,0,35.6V14.437a1.2,1.2,0,0,1,1.342-1.289H2.471A1.173,1.173,0,0,1,3.76,14.437L3.714,34.848V34.9c.054,1.792.3,2.982.778,3.555a3.177,3.177,0,0,0,2.235,1.006H7.733a3.119,3.119,0,0,1,.87.122c.267.084.579.328.579,1.014" transform="translate(0 -8.175)" fill="#444"/>
    <path id="Path_15440" data-name="Path 15440" d="M53.623,23.755A12.9,12.9,0,0,0,49.4,20.8a13.066,13.066,0,0,0-5.294-1.076,12.821,12.821,0,0,0-9.461,4.033,14.224,14.224,0,0,0,0,19.421,12.822,12.822,0,0,0,9.461,4.034A13.072,13.072,0,0,0,49.4,46.134a12.869,12.869,0,0,0,4.221-2.958,14.228,14.228,0,0,0,0-19.421m.239,9.711a10.662,10.662,0,0,1-.738,3.948,10.124,10.124,0,0,1-2.034,3.23,9.8,9.8,0,0,1-3.075,2.185,9.57,9.57,0,0,1-7.709,0,9.783,9.783,0,0,1-3.075-2.185,10.1,10.1,0,0,1-2.034-3.23,10.93,10.93,0,0,1,0-7.9,10.118,10.118,0,0,1,2.035-3.23A9.8,9.8,0,0,1,40.307,24.1a9.566,9.566,0,0,1,7.709,0,9.823,9.823,0,0,1,3.075,2.185,10.117,10.117,0,0,1,2.033,3.23,10.669,10.669,0,0,1,.739,3.948" transform="translate(-19.174 -12.263)" fill="#444"/>
    <path id="Path_15441" data-name="Path 15441" d="M208.865,13.148h-1.121a1.2,1.2,0,0,0-1.342,1.3v5.288c-.015-.023-.038-.039-.053-.061a12.816,12.816,0,0,0-4.217-2.959,13.033,13.033,0,0,0-5.293-1.075,12.815,12.815,0,0,0-9.464,4.034,14.215,14.215,0,0,0,0,19.416,13.1,13.1,0,0,0,18.974,0c.015-.023.038-.038.053-.061a14.068,14.068,0,0,0,2.738-4.309,13.815,13.815,0,0,0,.9-3.4,14.248,14.248,0,0,0,.126-1.817V14.445a1.18,1.18,0,0,0-1.3-1.3M206.4,31.408a10.256,10.256,0,0,1-2.585,5.148,9.772,9.772,0,0,1-3.073,2.189,9.6,9.6,0,0,1-7.71,0,9.77,9.77,0,0,1-3.073-2.189,10.046,10.046,0,0,1-2.036-3.226,10.917,10.917,0,0,1,0-7.9,10.054,10.054,0,0,1,2.036-3.226,9.776,9.776,0,0,1,3.073-2.189,9.6,9.6,0,0,1,7.71,0,9.778,9.778,0,0,1,3.073,2.189,10.1,10.1,0,0,1,2.036,3.226,10.236,10.236,0,0,1,.549,1.922,10.89,10.89,0,0,1,0,4.057" transform="translate(-114.133 -8.175)" fill="#444"/>
    <path id="Path_15442" data-name="Path 15442" d="M365.373,23.071a10.7,10.7,0,0,0-3.543-2.464,11.088,11.088,0,0,0-4.423-.885,9.81,9.81,0,0,0-5.133,1.388,11.851,11.851,0,0,0-3.108,2.667L349.09,20.8c0-.667-.315-1.075-.93-1.075H346.4a.925.925,0,0,0-.963,1.022V45.919a1.6,1.6,0,0,0,.215.9,1.084,1.084,0,0,0,.967.386h1.4a1.02,1.02,0,0,0,.914-.386,1.609,1.609,0,0,0,.216-.907V30.8a6.536,6.536,0,0,1,.665-2.9,8.106,8.106,0,0,1,1.754-2.38,7.9,7.9,0,0,1,10.96.075,7.8,7.8,0,0,1,1.674,2.429,7.319,7.319,0,0,1,.617,2.989V45.863a1.973,1.973,0,0,0,.174.939c.227.408.815.408,1.008.408h1.4c.356,0,1.184-.136,1.184-1.4V31.641a13.2,13.2,0,0,0-.854-4.787,11.514,11.514,0,0,0-2.348-3.783" transform="translate(-214.783 -12.263)" fill="#444"/>
    <path id="Path_15443" data-name="Path 15443" d="M450.156,30.94c-.506-.134-1.053-.308-1.627-.517a6.361,6.361,0,0,1-1.528-.8,4.628,4.628,0,0,1-1.131-1.131,2.455,2.455,0,0,1-.417-1.449,3.505,3.505,0,0,1,1.329-2.881,5.3,5.3,0,0,1,3.451-1.111,5.752,5.752,0,0,1,3.016.8,6.892,6.892,0,0,1,2.159,2.076c.09.134.382.587.47.673a1.049,1.049,0,0,0,1.511.087l.947-.579a1.2,1.2,0,0,0,.618-.826,1.4,1.4,0,0,0-.193-.912,9.509,9.509,0,0,0-3.6-3.676,9.871,9.871,0,0,0-4.926-1.112,8.77,8.77,0,0,0-6.043,2.051,6.938,6.938,0,0,0-2.313,5.412,5.9,5.9,0,0,0,.667,2.8,7.647,7.647,0,0,0,1.727,2.165,10.318,10.318,0,0,0,2.466,1.572,16.368,16.368,0,0,0,2.9,1.019c.728.174,1.478.392,2.231.649a8.225,8.225,0,0,1,2,.986,5.855,5.855,0,0,1,1.446,1.394,2.954,2.954,0,0,1,.545,1.76,3.162,3.162,0,0,1-.547,1.841,4.637,4.637,0,0,1-1.427,1.328,6.915,6.915,0,0,1-1.885.779,7.946,7.946,0,0,1-1.919.253,5.355,5.355,0,0,1-1.437-.225,8.471,8.471,0,0,1-1.6-.634,5.806,5.806,0,0,1-1.418-1.011,8.717,8.717,0,0,1-1.194-1.619,1.208,1.208,0,0,0-1.635-.685l-.975.463a1.154,1.154,0,0,0-.707,1.652A9.471,9.471,0,0,0,445,45.765a9.869,9.869,0,0,0,5.074,1.354,11.655,11.655,0,0,0,3.608-.492,9.457,9.457,0,0,0,2.941-1.516,7.3,7.3,0,0,0,2.087-2.444,7.051,7.051,0,0,0,.771-3.327c0-4-3.138-6.825-9.327-8.4" transform="translate(-274.196 -12.174)" fill="#444"/>
    <path id="Path_15444" data-name="Path 15444" d="M504.266,34.848c0,1.815.244,3.027.724,3.607a3.2,3.2,0,0,0,2.242,1.006h1a3.163,3.163,0,0,1,.878.122c.259.084.579.328.579,1.014v1.4a.935.935,0,0,1-.595.976,3.164,3.164,0,0,1-1.022.153h-.808a10.974,10.974,0,0,1-2.6-.305,5.151,5.151,0,0,1-2.2-1.174A5.632,5.632,0,0,1,501,39.3a11.456,11.456,0,0,1-.5-3.7V14.437a1.2,1.2,0,0,1,1.349-1.289h1.068a1.2,1.2,0,0,1,1.35,1.289v1.2h4.34a1.255,1.255,0,0,1,1.4,1.35v.854a1.255,1.255,0,0,1-1.4,1.35h-4.34Z" transform="translate(-311.197 -8.175)" fill="#444"/>
    <path id="Path_15445" data-name="Path 15445" d="M421.247,19.722h-1.074a1.2,1.2,0,0,0-1.344,1.29V45.919a1.2,1.2,0,0,0,1.344,1.291h1.074a1.2,1.2,0,0,0,1.344-1.291V21.012a1.2,1.2,0,0,0-1.344-1.29" transform="translate(-260.417 -12.263)" fill="#444"/>
    <path id="Path_15446" data-name="Path 15446" d="M422.2,2.486A2.486,2.486,0,1,1,419.714,0,2.486,2.486,0,0,1,422.2,2.486" transform="translate(-259.421 0)" fill="#444"/>
    <rect id="Rectangle_3121" data-name="Rectangle 3121" width="0.772" height="10.2" transform="translate(0 45.628)" fill="#444"/>
    <path id="Path_15447" data-name="Path 15447" d="M18.542,120.636v10.2h-.685l-6.018-8.772v8.772h-.773v-10.2h.671l6.033,8.772v-8.772Z" transform="translate(-6.881 -75.008)" fill="#444"/>
    <path id="Path_15448" data-name="Path 15448" d="M37.016,120.636h.845l3.366,9.2,3.38-9.2h.831l-3.8,10.2h-.816Z" transform="translate(-23.015 -75.008)" fill="#444"/>
    <path id="Path_15449" data-name="Path 15449" d="M71.378,130.107v.728H65.505v-10.2h5.8v.729H66.278v3.964h4.663v.728H66.278v4.051Z" transform="translate(-40.729 -75.008)" fill="#444"/>
    <path id="Path_15450" data-name="Path 15450" d="M86.75,128.329l.67-.394a2.9,2.9,0,0,0,3.06,2.055c1.705,0,2.564-.874,2.564-2.041,0-1.223-1.078-1.69-2.637-2.185-1.705-.554-3.235-1.034-3.235-2.812a2.813,2.813,0,0,1,3.089-2.739,3.425,3.425,0,0,1,3.278,2.142l-.655.364a2.682,2.682,0,0,0-2.623-1.763,2.041,2.041,0,0,0-2.3,1.967c0,1.225,1.035,1.6,2.492,2.084,1.807.6,3.381,1.165,3.381,2.929,0,1.691-1.326,2.8-3.352,2.8a3.652,3.652,0,0,1-3.73-2.4" transform="translate(-53.939 -74.745)" fill="#444"/>
    <path id="Path_15451" data-name="Path 15451" d="M116.582,121.364h-3.206v9.472h-.787v-9.472h-3.206v-.728h7.2Z" transform="translate(-68.012 -75.008)" fill="#444"/>
    <path id="Path_15452" data-name="Path 15452" d="M144.206,130.836h-.772v-9.063l-3.774,6.266h-.132l-3.774-6.266v9.063h-.772v-10.2h.962l3.643,6.033,3.642-6.033h.977Z" transform="translate(-83.929 -75.008)" fill="#444"/>
    <path id="Path_15453" data-name="Path 15453" d="M174.281,130.107v.728h-5.873v-10.2h5.8v.729h-5.027v3.964h4.663v.728h-4.663v4.051Z" transform="translate(-104.712 -75.008)" fill="#444"/>
    <path id="Path_15454" data-name="Path 15454" d="M198.747,120.636v10.2h-.685l-6.018-8.772v8.772h-.773v-10.2h.671l6.033,8.772v-8.772Z" transform="translate(-118.927 -75.008)" fill="#444"/>
    <path id="Path_15455" data-name="Path 15455" d="M224.805,121.364H221.6v9.472h-.787v-9.472h-3.206v-.728h7.2Z" transform="translate(-135.302 -75.008)" fill="#444"/>
    <path id="Path_15456" data-name="Path 15456" d="M240.817,128.329l.67-.394a2.9,2.9,0,0,0,3.06,2.055c1.705,0,2.564-.874,2.564-2.041,0-1.223-1.078-1.69-2.637-2.185-1.7-.554-3.235-1.034-3.235-2.812a2.813,2.813,0,0,1,3.089-2.739,3.425,3.425,0,0,1,3.278,2.142l-.655.364a2.682,2.682,0,0,0-2.623-1.763,2.041,2.041,0,0,0-2.3,1.967c0,1.225,1.035,1.6,2.492,2.084,1.807.6,3.381,1.165,3.381,2.929,0,1.691-1.326,2.8-3.352,2.8a3.652,3.652,0,0,1-3.73-2.4" transform="translate(-149.734 -74.745)" fill="#444"/>
  </g>
</svg>
