<svg id="Group_9804" data-name="Group 9804" xmlns="http://www.w3.org/2000/svg" xmlns:xlink="http://www.w3.org/1999/xlink" width="174.922" height="58.988" viewBox="0 0 174.922 58.988">
  <defs>
    <clipPath id="clip-path">
      <rect id="Rectangle_3120" data-name="Rectangle 3120" width="174.922" height="58.988" fill="none"/>
    </clipPath>
  </defs>
  <g id="Group_9803" data-name="Group 9803" clip-path="url(#clip-path)">
    <path id="Path_15404" data-name="Path 15404" d="M235.735,189.923V196.5h-1.251V195.25h-.038a4.341,4.341,0,0,1-3.583,1.44c-3.11,0-5.347-2.235-5.347-7.032s2.237-7.034,5.347-7.034c2.312,0,4.1,1.1,4.93,4.019l-1.442.284c-.682-2.179-1.82-3.014-3.413-3.014-2.009,0-3.906,1.365-3.906,5.745s1.9,5.745,3.906,5.745a2.929,2.929,0,0,0,3.281-3.035v-1.155h-3.091v-1.29Z" transform="translate(-174.305 -141.153)" fill="#585857"/>
    <path id="Path_15405" data-name="Path 15405" d="M280.285,199.808h1.365v1.953h.038a3.357,3.357,0,0,1,3.2-2.1v1.365c-1.707.038-2.6,1.157-3.242,3.186v5.459h-1.365Z" transform="translate(-216.637 -154.318)" fill="#585857"/>
    <path id="Path_15406" data-name="Path 15406" d="M306.615,209.724c-2.693,0-4.038-2.274-4.038-5.118s1.345-5.12,4.038-5.12,4.038,2.275,4.038,5.12-1.346,5.118-4.038,5.118m0-9.062c-1.63,0-2.673,1.4-2.673,3.944s1.043,3.944,2.673,3.944,2.674-1.4,2.674-3.944-1.044-3.944-2.674-3.944" transform="translate(-233.867 -154.186)" fill="#585857"/>
    <path id="Path_15407" data-name="Path 15407" d="M351.711,210.185v-1.326h-.038a4.05,4.05,0,0,1-2.92,1.516,2.623,2.623,0,0,1-2.843-2.883v-7.165h1.365v7.129c0,1.307.625,1.743,1.611,1.743a4.553,4.553,0,0,0,2.825-1.5v-7.375h1.365v9.858Z" transform="translate(-267.36 -154.836)" fill="#585857"/>
    <path id="Path_15408" data-name="Path 15408" d="M389.49,213.176v-13.5h1.365v1.157h.038a3.408,3.408,0,0,1,2.558-1.347c1.745,0,4.038,1.176,4.038,5.12,0,3.829-2.293,5.118-3.961,5.118a4.252,4.252,0,0,1-2.6-1.1l-.075-.038v4.588Zm1.365-5.991a3.683,3.683,0,0,0,2.483,1.365c1.593,0,2.787-1.042,2.787-4.019,0-2.5-1.08-3.867-2.787-3.867a3.426,3.426,0,0,0-2.483,1.326Z" transform="translate(-301.044 -154.188)" fill="#585857"/>
    <path id="Path_15409" data-name="Path 15409" d="M48.666,9.479a.93.93,0,0,0,1.2,1.277,18.467,18.467,0,0,1,14.552,0,.93.93,0,0,0,1.2-1.277l3.01-4.743c.448-.84-.241-1.469-.78-1.2s-1.04.583-1.04.583A21.473,21.473,0,0,0,64.813,3.2c.012-.047.014-.082.024-.129A2.294,2.294,0,0,0,63.085.34,2.27,2.27,0,0,0,61.36.652a2.242,2.242,0,0,0-.976,1.305c-.318-.049-.658-.089-.977-.124A2.256,2.256,0,0,0,58.759.672a2.29,2.29,0,0,0-3.24,0,2.255,2.255,0,0,0-.646,1.162c-.321.035-.661.075-.977.124A2.313,2.313,0,0,0,51.193.34a2.294,2.294,0,0,0-1.752,2.727c.01.047.01.082.025.129a21.7,21.7,0,0,0-1.989.921s-.5-.312-1.04-.583-1.229.361-.78,1.2Zm16.271.492a.165.165,0,0,1-.089.086.169.169,0,0,1-.131,0,19.223,19.223,0,0,0-15.156,0,.169.169,0,0,1-.131,0,.16.16,0,0,1-.089-.086c-.038-.089.044-.223.211-.3l.094-.04a19.751,19.751,0,0,1,14.985,0l.094.04c.166.078.25.213.211.3M61.23,2.282A1.4,1.4,0,1,1,62.3,3.947a1.4,1.4,0,0,1-1.07-1.665M57.14.893a1.4,1.4,0,1,1-1.4,1.4,1.4,1.4,0,0,1,1.4-1.4m-5.757.32a1.4,1.4,0,1,1-1.071,1.665,1.4,1.4,0,0,1,1.071-1.665M49.6,6.488A3.953,3.953,0,0,0,52.119,4.7a3.95,3.95,0,0,0,2.2.665,3.916,3.916,0,0,0,2.824-1.2,3.9,3.9,0,0,0,2.822,1.2,3.954,3.954,0,0,0,2.2-.665,3.95,3.95,0,0,0,2.523,1.785,3.9,3.9,0,0,0,1.8-.026L64.925,8.924a20.51,20.51,0,0,0-15.573,0L47.8,6.462a3.9,3.9,0,0,0,1.8.026" transform="translate(-35.176)" fill="#585857"/>
    <path id="Path_15410" data-name="Path 15410" d="M41.482,52.484a1.752,1.752,0,0,0-1.787,1.785c.042.422.017.628-.089.356a1.521,1.521,0,0,1,.374-1.85l.33-.307c1.352-1.246,3.616-3.331,3.616-5.785,0-3.509-3.817-4.584-3.817-4.584a1.549,1.549,0,0,0,.354-.176,1.532,1.532,0,0,0,.5-1.392,1.479,1.479,0,0,0-.738-1.255,1.452,1.452,0,0,0,.684-1.813,1.576,1.576,0,0,0-.947-.9c-.039-.012-.075-.023-.112-.032a1.515,1.515,0,0,0-1.515-.769,1.3,1.3,0,0,0-1.242-.771,1.287,1.287,0,0,0-.223-.3,1.607,1.607,0,0,0-1.522-.6,2.712,2.712,0,0,1-.431.087,2.792,2.792,0,0,0-3.1.721,3.64,3.64,0,0,0-1.223,3.2,18.12,18.12,0,0,0-17.252,0,3.65,3.65,0,0,0-1.225-3.2,2.8,2.8,0,0,0-3.1-.721,2.747,2.747,0,0,1-.429-.087,1.608,1.608,0,0,0-1.522.6,1.287,1.287,0,0,0-.223.3,1.309,1.309,0,0,0-.592.115,1.289,1.289,0,0,0-.651.656,1.515,1.515,0,0,0-1.515.769c-.037.009-.073.019-.11.032a1.574,1.574,0,0,0-.949.9A1.452,1.452,0,0,0,3.7,39.275a1.477,1.477,0,0,0-.736,1.255,1.532,1.532,0,0,0,.5,1.392,1.6,1.6,0,0,0,.354.176S0,43.174,0,46.683c0,2.454,2.263,4.539,3.616,5.785l.33.307a1.524,1.524,0,0,1,.374,1.85c-.107.272-.131.066-.087-.356a1.757,1.757,0,0,0-1.787-1.785c-2.879,0-2.19,4.724,1.438,4.724a6.95,6.95,0,0,0,2.454-.471,3.544,3.544,0,0,0-.517,2.688c.014.2.026.387.026.525,0,.285.038.609-.173.672l-.009-.005c-.613.1-.634-.981-.634-.981a1.817,1.817,0,0,0-.8,1.766,1.672,1.672,0,0,0,1.387,1.558,1.873,1.873,0,0,0-.9,1.923c.33,1.169.483,1.682.483,1.682-.145.148-.3.3-.478.457-1.609,1.438-2.68,2.759-2.68,4.532a3.774,3.774,0,0,0,.56,2.09c.042.077.1.174.113.216a3.227,3.227,0,0,1-.026.349,1.249,1.249,0,0,0,.654,1.4l.459.005a3.79,3.79,0,0,0,.164,2.029c.2.293.976-.265.976-.265A13.933,13.933,0,0,0,6,78.895l-.644.787a1.458,1.458,0,0,0,.085,2,1.728,1.728,0,0,0,1.084.529,1.532,1.532,0,0,0,.539,1.872,1.352,1.352,0,0,0,1.82-.4L9.86,82.23a14.036,14.036,0,0,0,7.092,1.921,13.242,13.242,0,0,0,4.837-.7c.084-.208-.487-.876-.487-.876a3.184,3.184,0,0,1,.661-.106,3.192,3.192,0,0,1,.66.106s-.571.668-.489.876a13.271,13.271,0,0,0,4.839.7,14.031,14.031,0,0,0,7.092-1.921l.977,1.452a1.352,1.352,0,0,0,1.82.4,1.532,1.532,0,0,0,.539-1.872,1.732,1.732,0,0,0,1.084-.529,1.46,1.46,0,0,0,.087-2l-.646-.787a14.172,14.172,0,0,0,1.052-1.513s.77.558.974.265a3.806,3.806,0,0,0,.164-2.029l.457-.005a1.248,1.248,0,0,0,.656-1.4,2.889,2.889,0,0,1-.025-.349,2.269,2.269,0,0,1,.112-.216,3.76,3.76,0,0,0,.56-2.09c0-1.773-1.072-3.094-2.68-4.532-.174-.159-.333-.309-.478-.457,0,0,.154-.513.483-1.682a1.873,1.873,0,0,0-.9-1.923A1.677,1.677,0,0,0,39.695,61.4a1.82,1.82,0,0,0-.8-1.766s-.022,1.08-.635.981a.019.019,0,0,0-.007.005c-.211-.063-.175-.387-.175-.672,0-.138.012-.326.026-.525a3.536,3.536,0,0,0-.516-2.688,6.949,6.949,0,0,0,2.453.471c3.626,0,4.317-4.724,1.44-4.724M1.448,54.328a.477.477,0,1,1,.478.478.479.479,0,0,1-.478-.478m1.536,1.733c-.518,0-1.012-.609-1.012-.609a4.031,4.031,0,0,0,1.056-.382,2.555,2.555,0,0,0,.64.473c.283.112-.167.518-.684.518m.157-1.62a2.733,2.733,0,0,0-.248-.787c-.136-.159.653-.4.829-.023.34.719-.581.81-.581.81M33.716,36.427c.121-.208.478.206,1.007.206s.433-.955.592-1.421.59-.223.919.107.091,1.26.33,1.379.15-1.047.748-.778c.382.171.271.84.422.927s.6-.358,1.047-.148a.763.763,0,0,1,.374.77.646.646,0,0,1,.937.361c.321.71-1.4.909-1.16,1.808.2.738,1.021-.119,1.139.989s-1.293.726-1.293.726a13.842,13.842,0,0,1-2.424,1.583s2.878-3.9,2.021-4.6c-.279-.225-.492.488-.672.4s-.12-.541-.234-.89-.485-.4-.485.126a5.337,5.337,0,0,1-.421,2.832,6.166,6.166,0,0,1-1.11,1.918l-1.649.482.181-1.652.749-1.1s1.8.082,1.8-1.417a1.343,1.343,0,0,0-1.29-1.442c-.27-.028-.749.152-.75-.282s-.9-.675-.778-.887m-1.005,4.225c.8,0,.855.787.714,1.211l-.227.607a5.545,5.545,0,0,0-.4,2.516c.019.178-.225.236-.248.056a5.631,5.631,0,0,1,.415-2.661l.225-.607c.087-.277-.028-.572-.159-.483a.4.4,0,1,1-.316-.639M34.278,54.9a33.187,33.187,0,0,1-2.8,12.456c-.04.093-.292.012-.227-.12A30.879,30.879,0,0,0,34.023,54.9a16.247,16.247,0,0,0-1.11-6.446c-.111-.225.162-.3.232-.108A16.645,16.645,0,0,1,34.278,54.9m-.127-7.382c.539.517.044,1.326.044,1.326a2.725,2.725,0,0,0-.534-1.009.3.3,0,0,1,.49-.318m-.545,16.28c0-.29.166-.579.2-.9.1-.033.065.1.131.066.126.452-.168.613-.33.838m3.153,8.343a1.471,1.471,0,0,0-.136-1.6c-.269-.2-.337-.291-.2-.471a5.43,5.43,0,0,0,.225-1.417c.024-.278.316-.157.585.063.026.023.061.047.117.089a7.675,7.675,0,0,1,2.127,2.106,1.126,1.126,0,0,0-1.068-.27A1.178,1.178,0,0,0,37.6,71.7c-.1,1.047-.157,1.778-.168,2.295-.005.218-.265.031-.536-.284a2.637,2.637,0,0,0-.845-.545c-.166.211-.548,1.186-.729,1.489a5.054,5.054,0,0,0-.66-1.124s-.525.885-.983.562c-.345-.243-.188-.52-.066-.989a1.44,1.44,0,0,1,.494-.808c.188-.181.382.112.989.471a1.237,1.237,0,0,0,1.665-.63m-1.586-.173L35.9,70.88a.667.667,0,0,1-.473,1.139.633.633,0,0,1-.258-.054M33.1,76.56c-.164.27-.374.33-.374.136V75.6c0-.269.18-.3.464-.314a2.135,2.135,0,0,0,1.078-.1,1.549,1.549,0,0,1-1.064.749,1.032,1.032,0,0,1-.1.63m.585-9.235c-.412.5-1.31-.539-.906-.967.351-.37,1.318.473.906.967m-9.53,10.668a6.9,6.9,0,0,0-4.385,0c-.64.239-1.185.534-1.045.755a.608.608,0,0,1,.1.585,10.126,10.126,0,0,1-1.878.187,9.345,9.345,0,0,1-5.671-1.935s1.394-.32,1.394-2.86a13.345,13.345,0,0,0-.112-1.956c3.441,0,4.3-1.192,4.3-1.192a1.274,1.274,0,1,0,2.548,0,1.575,1.575,0,0,1,.419.653c.113.414-.148.45-.51.719-.747.56.419,1.967,1.26,1.349.45-.33,1.38-1.019,1.38-1.019s.928.689,1.379,1.019c.839.618,2.009-.789,1.258-1.349-.359-.269-.621-.305-.508-.719a1.575,1.575,0,0,1,.419-.653,1.274,1.274,0,1,0,2.548,0s.864,1.192,4.3,1.192a13.345,13.345,0,0,0-.112,1.956c0,2.541,1.394,2.86,1.394,2.86a9.341,9.341,0,0,1-5.671,1.935,10.094,10.094,0,0,1-1.876-.187.6.6,0,0,1,.1-.585c.14-.222-.4-.516-1.045-.755m-14.5-2.811a2.144,2.144,0,0,0,1.08.1c.284.014.464.045.464.314v1.1c0,.194-.209.134-.375-.136a1.038,1.038,0,0,1-.1-.63,1.555,1.555,0,0,1-1.066-.749M7.167,72.138a1.234,1.234,0,0,0,1.663.63c.607-.359.8-.653.989-.471a1.441,1.441,0,0,1,.5.808c.121.469.277.747-.068.989-.457.323-.983-.562-.983-.562a4.98,4.98,0,0,0-.66,1.124c-.181-.3-.565-1.278-.729-1.489a2.637,2.637,0,0,0-.845.545c-.269.316-.53.5-.536.284-.011-.517-.067-1.248-.168-2.295a1.176,1.176,0,0,0-.81-1.061,1.121,1.121,0,0,0-1.066.27,7.614,7.614,0,0,1,2.127-2.106l.117-.089c.269-.22.558-.34.583-.063A5.43,5.43,0,0,0,7.5,70.07c.134.18.066.269-.2.471a1.469,1.469,0,0,0-.134,1.6m.658-.787a.664.664,0,0,1,.2-.471l.733,1.085a.653.653,0,0,1-.26.054.668.668,0,0,1-.668-.668m2.415-4.026c-.412-.494.557-1.337.906-.967.4.428-.494,1.462-.906.967M9.645,54.9a16.623,16.623,0,0,1,1.135-6.554c.07-.188.344-.117.23.108A16.342,16.342,0,0,0,9.9,54.9a30.875,30.875,0,0,0,2.773,12.336c.064.133-.187.213-.225.12A33.131,33.131,0,0,1,9.645,54.9m.672,8.9c-.161-.225-.454-.386-.326-.838.064.03.031-.1.129-.066.035.324.2.614.2.9m-.543-16.28a.3.3,0,0,1,.49.318,2.731,2.731,0,0,0-.536,1.009s-.494-.81.045-1.326M12.563,70.25c.023.337-.113.4-.473.246s-.4-.337-.178-.473a.75.75,0,0,0,.428-.742c0-.449.031-.738.246-.651.45.18.293.473.089.742s-.134.541-.112.878m4.52-1.642a6.7,6.7,0,0,0-2.366-.524,1.306,1.306,0,0,0,.494-1.106,7.09,7.09,0,0,1,3.422,2.4,9.978,9.978,0,0,0-1.55-.771m1.438,2.968a.381.381,0,1,1-.38-.382.38.38,0,0,1,.38.382m-1.3-2.047a2.376,2.376,0,0,0-.832,0c-.338.091-.63.157-.63.157a7.7,7.7,0,0,1-.674-.832,2.615,2.615,0,0,1,2.136.675m-2.183.359a2.874,2.874,0,0,1-.312.2c-.272.162-1.44-.424-1.44-.424a1.16,1.16,0,0,1,.764-.4c.426,0,.988.628.988.628m11.807-1.281a9.977,9.977,0,0,0-1.55.771,7.087,7.087,0,0,1,3.42-2.4,1.312,1.312,0,0,0,.5,1.106,6.711,6.711,0,0,0-2.366.524m3.037.653a1.159,1.159,0,0,1,.763.4s-1.167.586-1.44.424a2.912,2.912,0,0,1-.312-.2s.562-.628.99-.628m-1.035-.407a7.778,7.778,0,0,1-.675.832s-.292-.066-.628-.157a2.384,2.384,0,0,0-.834,0,2.62,2.62,0,0,1,2.138-.675m-2.677,2.722a.382.382,0,1,1-.382-.382.382.382,0,0,1,.382.382m5.083-2.2c-.2-.269-.359-.562.089-.742.215-.087.248.2.248.651a.747.747,0,0,0,.428.742c.225.136.18.316-.182.473s-.494.091-.471-.246.091-.609-.112-.878m-.818-29.451a2.385,2.385,0,0,1,1.125.459l-.515.274a1.31,1.31,0,0,1-.6.141c-.352,0-.518-.874-.009-.874M29,38.237c.059-.182.489.1.866.272.213.1.168.958-.114.81-.309-.162-.605-.408-.593-.6.019-.3-.218-.3-.159-.485m.548,2.567A13.174,13.174,0,0,1,27.97,40.6c-1.4-.255-3.876-2.368-3.876-2.368a11.717,11.717,0,0,1,5.4,1.712,3.393,3.393,0,0,0,.056.864M26.98,37.483c.037-.19.325,0,.728.1s.592.684.742,1.1c0,0-1.229-.372-1.249-.738-.019-.3-.257-.272-.22-.461M25.618,37c.414.052.67.607.872.995,0,0-1.265-.216-1.333-.576-.056-.293-.288-.241-.274-.431s.321-.038.735.012m-2.148-.323c.415,0,.742.517.989.878,0,0-1.281-.056-1.394-.4-.091-.285-.314-.2-.326-.393s.314-.08.731-.08m-1.506.232c.066,0,.4.285.4.438,0,.072-.276.023-.4.023s-.4.049-.4-.023c0-.154.337-.438.4-.438m0,2.4a.806.806,0,1,1-.806.806.805.805,0,0,1,.806-.806m-1.506-2.635c.415,0,.74-.112.729.08s-.234.108-.326.393c-.112.349-1.394.4-1.394.4.248-.361.574-.878.991-.878M14.432,39.94a11.708,11.708,0,0,1,5.4-1.712s-2.478,2.113-3.876,2.368a13.18,13.18,0,0,1-1.579.208,3.392,3.392,0,0,0,.056-.864M18.307,37c.414-.051.723-.2.735-.012s-.218.138-.274.431c-.068.359-1.333.576-1.333.576.2-.387.461-.942.872-.995m-2.091.588c.4-.1.691-.293.728-.1s-.2.164-.218.461c-.025.367-1.253.738-1.253.738.152-.412.34-.993.743-1.1m-2.159.923c.377-.176.806-.454.866-.272s-.178.187-.159.485c.01.188-.286.435-.593.6-.281.149-.326-.71-.113-.81m-.567,1.412c.511,0,.346.874-.007.874a1.312,1.312,0,0,1-.6-.141l-.515-.274a2.384,2.384,0,0,1,1.124-.459m-1.026,1.522c1.087.574,4.01.113,4.94-.4a9.55,9.55,0,0,1,2.879-.663,1.67,1.67,0,0,0,.476.935,1.7,1.7,0,0,0,2.879-.935,9.55,9.55,0,0,1,2.879.663c.93.511,3.855.972,4.94.4l.9.717a5.29,5.29,0,0,0-.328,3.534,1.529,1.529,0,0,0,.3,3.027A15.816,15.816,0,0,1,33.385,54.9,31.44,31.44,0,0,1,30.51,67.309c-.154.3-1.11.276-.871-.492s.057-1.005-.812-.8a8.4,8.4,0,0,0-5.7,5.307c-.176.422-.721.66-1.169-.9-.45,1.558-.995,1.321-1.169.9a8.4,8.4,0,0,0-5.7-5.307c-.869-.209-1.049.03-.811.8s-.717.794-.871.492A31.432,31.432,0,0,1,10.538,54.9a15.813,15.813,0,0,1,1.049-6.176,1.529,1.529,0,0,0,.3-3.027,5.3,5.3,0,0,0-.326-3.534Zm19.871,6.385a.636.636,0,0,1-.19-1.243Zm-20.749,0,.192-1.243a.636.636,0,0,1-.192,1.243m-.374-7.176a.4.4,0,1,1,0,.794.392.392,0,0,1-.314-.155c-.133-.089-.244.206-.161.483l.225.607a5.664,5.664,0,0,1,.417,2.661c-.025.18-.269.122-.251-.056a5.493,5.493,0,0,0-.4-2.516l-.225-.607c-.14-.424-.086-1.211.714-1.211M3.832,37.829a.646.646,0,0,1,.937-.361.764.764,0,0,1,.372-.77c.452-.209.9.232,1.049.148s.04-.756.422-.927c.6-.269.51.9.749.778s0-1.047.33-1.379.761-.574.919-.107.063,1.421.592,1.421.888-.414,1.007-.206-.775.45-.777.887-.482.255-.752.282a1.343,1.343,0,0,0-1.29,1.442c0,1.5,1.8,1.417,1.8,1.417l.75,1.1.18,1.652-1.649-.482a6.166,6.166,0,0,1-1.11-1.918,5.33,5.33,0,0,1-.419-2.832c0-.525-.374-.476-.487-.126s-.054.8-.234.89-.394-.625-.67-.4c-.859.7,2.019,4.6,2.019,4.6a13.907,13.907,0,0,1-2.424-1.583s-1.413.384-1.293-.726.942-.251,1.139-.989c.239-.9-1.481-1.1-1.16-1.808M5.425,51.161c1.921,2.719.324,5.286-1.169,5.286,0,0,2.258-2.478.3-4.321C3.457,51.087.892,48.953.892,46.683s2.159-3.036,3.891-3.036c2.045,0,3.1,1.08,3.394.764S7.75,43.4,7.75,43.4s1.485-.27,1.373,1.529c-.021.314.255.511.358.18a3.025,3.025,0,0,0-.089-1.326s.721.2,1.058,1.574a4.922,4.922,0,0,1,.248,1.775s-.893-.986-1.312-.492c0,0-1.949-2.363-4.04-2.363S3.478,46.165,4.4,47.131s3.577,3.689,3.577,5.893a2.912,2.912,0,0,1-1.553,2.832,4.483,4.483,0,0,0-.539-4.947c-.33-.387-.705-.1-.459.251m-.2-4.82.073.077c.518.541.926,1.049,1.333,1.474.168.178.012.365-.2.164-.483-.466-.885-1.007-1.321-1.462l-.073-.077a1.3,1.3,0,0,1-.4-1.127s.091-.213.182-.19.054.29.054.29a1.129,1.129,0,0,0,.347.852M4.4,75.8a.491.491,0,0,1,.361-.674c.438-.122.628-.473.433-.813a.445.445,0,0,0-.817.07c-.157.382-.314.585-.628.427s-.134-.359-.134-.965-.675-.855-.675-2.295.9-2.541,2.382-3.867a8.946,8.946,0,0,0,2.611-4.162c.7-1.8.832-4.07.517-4.07s-.607,1.6-.9,2.9-.583,1.888-1.016,1.654.117-1.229.386-1.633a.8.8,0,0,0,0-.831,1.38,1.38,0,0,1-1.056.539c-.674,0-.742-.764-.742-.764.989.764,1.619-.45,1.619-1.373s-.4-2.832.831-2.832,2.047,2.361,2.047,3.778a13.138,13.138,0,0,1-.307,2.131A1.825,1.825,0,0,0,10,64.448c.382.339.653.585.585.742a3.557,3.557,0,0,0-.222.679c-.087.365-.485.035-.79-.363s-.7-.136-.9.112-.316.068-.2-.225-.293-.382-.41-.126a20.324,20.324,0,0,1-1.278,1.611c-.291.359-.291.853-.653,1.146-.183.148-2.7,1.934-2.7,3.216,0,1.379,1.283.742,1.529.428s.45-.159.478.122a29.384,29.384,0,0,1,.154,3.092A10.745,10.745,0,0,1,4.4,75.8m1.687,5.263c-.506-.534.079-1.237.607-.853a1.7,1.7,0,0,1,.473,1.056,1.12,1.12,0,0,1-1.08-.2m2.091,2.068c-.473.607-1.147.023-.764-.742,0,0,1.237.134.764.742m11.885-.246a12.7,12.7,0,0,1-3.111.372A13.093,13.093,0,0,1,5.5,76.565a.445.445,0,0,1,.223-.694,7.834,7.834,0,0,0,1.326-1.058c.248-.2.473-.494.778.072a10.388,10.388,0,0,0,9.12,5.526,10.71,10.71,0,0,0,2.047-.2c.333-.063.424.206.559.745a4.278,4.278,0,0,0,.605,1.485c.2.18.429.319-.1.45m2.768-1.176a3.845,3.845,0,0,0-.867-.131,3.845,3.845,0,0,0-.869.131c-.3.066-.511-.277-.548-.646a4.476,4.476,0,0,0-.492-1.262c-.23-.485-.37-.829.021-.972a5.984,5.984,0,0,1,3.775,0c.391.143.251.487.021.972a4.518,4.518,0,0,0-.492,1.262c-.037.368-.251.712-.548.646m12.917,1.422c-.473-.607.764-.742.764-.742.382.764-.293,1.349-.764.742m2.091-2.068a1.117,1.117,0,0,1-1.079.2,1.691,1.691,0,0,1,.471-1.056c.529-.384,1.115.319.607.853m.583-4.5a13.093,13.093,0,0,1-11.447,6.694,12.7,12.7,0,0,1-3.111-.372c-.529-.131-.3-.27-.1-.45a4.245,4.245,0,0,0,.607-1.485c.136-.539.225-.808.56-.745a10.666,10.666,0,0,0,2.045.2,10.388,10.388,0,0,0,9.12-5.526c.305-.565.53-.274.778-.072A7.784,7.784,0,0,0,38.2,75.871a.446.446,0,0,1,.222.694M38.8,61.322s-.066.764-.742.764a1.386,1.386,0,0,1-1.058-.539.8.8,0,0,0,0,.831c.27.4.822,1.4.387,1.633s-.724-.351-1.017-1.654-.585-2.9-.9-2.9-.18,2.272.518,4.07A8.928,8.928,0,0,0,38.6,67.686c1.483,1.326,2.382,2.428,2.382,3.867s-.675,1.686-.675,2.295.181.808-.134.965-.471-.045-.628-.427a.445.445,0,0,0-.817-.07c-.2.34-.005.691.433.813a.491.491,0,0,1,.359.674,10.915,10.915,0,0,1-1.192-.921,29.263,29.263,0,0,1,.154-3.092c.028-.281.23-.438.476-.122s1.53.951,1.53-.428c0-1.283-2.513-3.068-2.7-3.216-.359-.293-.359-.787-.651-1.146a19.8,19.8,0,0,1-1.276-1.611c-.119-.256-.524-.166-.412.126s0,.473-.2.225-.6-.511-.9-.112-.7.728-.789.363a3.694,3.694,0,0,0-.222-.679c-.068-.157.2-.4.585-.742a1.824,1.824,0,0,0,.688-1.422,13.2,13.2,0,0,1-.305-2.131c0-1.417.81-3.778,2.047-3.778s.832,1.911.832,2.832.628,2.138,1.618,1.373M38.5,51.161c.246-.347-.129-.639-.457-.251a4.478,4.478,0,0,0-.541,4.947,2.912,2.912,0,0,1-1.551-2.832c0-2.2,2.654-4.926,3.574-5.893s1.148-2.855-.942-2.855-4.041,2.363-4.041,2.363c-.419-.494-1.312.492-1.312.492a4.922,4.922,0,0,1,.248-1.775c.339-1.372,1.056-1.574,1.056-1.574a3.054,3.054,0,0,0-.089,1.326c.1.332.38.134.359-.18-.112-1.8,1.373-1.529,1.373-1.529s-.721.7-.428,1.01,1.349-.764,3.4-.764c1.731,0,3.89.764,3.89,3.036s-2.565,4.4-3.665,5.443c-1.958,1.843.3,4.321.3,4.321-1.494,0-3.089-2.567-1.169-5.286m.545-5.672s-.037-.269.054-.29.18.19.18.19a1.306,1.306,0,0,1-.4,1.127l-.073.077c-.438.456-.84,1-1.323,1.462-.208.2-.363.014-.2-.164.406-.426.815-.934,1.331-1.474l.075-.077a1.148,1.148,0,0,0,.349-.852M40.2,53.632c.176-.375.963-.136.829.023a2.677,2.677,0,0,0-.248.787s-.921-.091-.581-.81m.74,2.429c-.518,0-.969-.407-.686-.518a2.537,2.537,0,0,0,.639-.473,4.058,4.058,0,0,0,1.058.382s-.494.609-1.01.609M42,54.806a.477.477,0,1,1,.478-.478.479.479,0,0,1-.478.478" transform="translate(0 -26.266)" fill="#585857"/>
    <path id="Path_15411" data-name="Path 15411" d="M27.628,217.791a.877.877,0,0,0-.042-.4l-.052-.194c-.04-.14-.08-.316.1-.424a.291.291,0,0,1,.4.112c.211.34-.146.541-.077.653.032.052.089.05.149.014a1.32,1.32,0,0,0,.211-.152.137.137,0,0,0,.035-.1,1.047,1.047,0,0,0-.159-.537.727.727,0,0,0-.4-.333.7.7,0,0,0-.565.077.583.583,0,0,0-.277.426.991.991,0,0,0,.073.422,1.363,1.363,0,0,1,.077.319.243.243,0,0,1-.126.223.35.35,0,0,1-.483-.143.531.531,0,0,1-.077-.319.646.646,0,0,1,.1-.262.166.166,0,0,0,.019-.173.146.146,0,0,0-.2-.019.536.536,0,0,0-.183.457.991.991,0,0,0,.154.454.8.8,0,0,0,.454.361.735.735,0,0,0,.6-.087.6.6,0,0,0,.27-.377" transform="translate(-20.216 -167.263)" fill="#585857"/>
    <path id="Path_15412" data-name="Path 15412" d="M33.181,222.434c.063-.054.086-.042.15-.019a.1.1,0,0,0,.112-.012c.07-.061.017-.126-.023-.171l-.14-.161c-.04-.047-.1-.108-.166-.049a.1.1,0,0,0-.028.108c.012.068.021.092-.042.146l-.674.585a1.292,1.292,0,0,1-.419.278.4.4,0,0,1-.4-.126.384.384,0,0,1-.056-.441,1.271,1.271,0,0,1,.321-.363l.628-.545c.1-.072.1-.091.2-.054a.083.083,0,0,0,.1-.01c.064-.056.023-.122-.014-.164l-.309-.356c-.035-.042-.092-.079-.152-.028a.1.1,0,0,0-.032.1l.005.031c.01.063-.045.1-.092.138l-.63.546a1.083,1.083,0,0,0-.426.625.79.79,0,0,0,.206.572.735.735,0,0,0,.6.285,1.278,1.278,0,0,0,.641-.363Z" transform="translate(-24.031 -170.836)" fill="#585857"/>
    <path id="Path_15413" data-name="Path 15413" d="M38.056,228.831c-.08-.12-.173-.272-.038-.431a.29.29,0,0,1,.414-.017c.305.26.028.56.129.644.047.04.1.023.145-.031a1.3,1.3,0,0,0,.154-.21.133.133,0,0,0,0-.106,1.071,1.071,0,0,0-.316-.463.748.748,0,0,0-.482-.194.707.707,0,0,0-.515.246.584.584,0,0,0-.131.492,1,1,0,0,0,.2.379,1.374,1.374,0,0,1,.173.281.248.248,0,0,1-.051.249.35.35,0,0,1-.5.012.529.529,0,0,1-.173-.281.672.672,0,0,1,.019-.281c.012-.068.016-.127-.037-.169a.145.145,0,0,0-.193.044.542.542,0,0,0-.033.492.983.983,0,0,0,.288.384.783.783,0,0,0,.543.2.717.717,0,0,0,.538-.265.6.6,0,0,0,.141-.442.863.863,0,0,0-.162-.366Z" transform="translate(-28.424 -176.243)" fill="#585857"/>
    <path id="Path_15414" data-name="Path 15414" d="M44.97,234.682a.567.567,0,0,1-.478-.026.5.5,0,0,1-.241-.473,1.427,1.427,0,0,1,.2-.564,1.158,1.158,0,0,1,.426-.434.5.5,0,0,1,.5-.016.407.407,0,0,1,.171.232.578.578,0,0,1,0,.29c-.009.063-.03.154.026.188a.1.1,0,0,0,.147-.044,2.587,2.587,0,0,0,.145-.281.181.181,0,0,0-.019-.124.942.942,0,0,0-.387-.457,1.084,1.084,0,0,0-1.452.447.994.994,0,0,0,.276,1.407.886.886,0,0,0,.5.126c.11-.007.326-.047.4-.166a.1.1,0,0,0-.021-.131c-.051-.033-.133.007-.19.026" transform="translate(-33.882 -179.97)" fill="#585857"/>
    <path id="Path_15415" data-name="Path 15415" d="M50.679,237.252c-.036-.051,0-.108.025-.164l.57-1.251c.025-.056.044-.12.1-.126l.033-.005c.036-.007.069-.01.09-.059.033-.07-.019-.117-.068-.138l-.424-.194c-.049-.023-.117-.031-.148.04a.1.1,0,0,0,.014.108l.017.028c.037.051,0,.107-.024.161L50.3,236.9c-.025.054-.042.119-.1.126l-.032.005a.1.1,0,0,0-.092.059c-.032.07.019.115.068.14l.424.192a.1.1,0,0,0,.15-.04.1.1,0,0,0-.017-.108Z" transform="translate(-38.693 -181.866)" fill="#585857"/>
    <path id="Path_15416" data-name="Path 15416" d="M55.843,237.223a.88.88,0,0,0-.41-.241l-.717-.237c-.052-.016-.122-.017-.145.057a.106.106,0,0,0,.026.107l.021.025c.04.045.01.1-.007.164l-.429,1.307c-.019.057-.03.122-.091.136l-.03.007c-.038.012-.068.019-.085.068-.025.075.031.117.084.133l.434.141c.054.017.155.061.185-.031a.089.089,0,0,0-.028-.11c-.032-.03-.063-.052-.065-.1a.55.55,0,0,1,.017-.1l.134-.414a1.426,1.426,0,0,0,.675.057.672.672,0,0,0,.525-.441.526.526,0,0,0-.1-.527m-.363.394a.549.549,0,0,1-.672.307l.208-.637a.27.27,0,0,1,.087-.152.208.208,0,0,1,.162,0,.347.347,0,0,1,.215.478" transform="translate(-41.714 -182.978)" fill="#585857"/>
    <path id="Path_15417" data-name="Path 15417" d="M63.376,239.033l-1.126-.2c-.054-.009-.122,0-.134.073a.1.1,0,0,0,.042.1l.023.021c.047.04.026.1.016.162l-.235,1.357c-.01.058-.012.126-.072.148l-.028.012c-.037.017-.065.03-.073.08-.016.077.047.108.1.117l1.18.2c.108.019.129.012.181-.1a1.138,1.138,0,0,0,.1-.25.094.094,0,0,0-.07-.108c-.063-.012-.134.064-.18.108a.357.357,0,0,1-.368.082c-.326-.061-.352-.085-.3-.377l.086-.49.363.064c.166.028.129.122.211.138s.112-.146.124-.223.035-.2-.049-.211-.073.094-.244.066l-.365-.063.092-.529a.091.091,0,0,1,.075-.073.734.734,0,0,1,.2.01,1.1,1.1,0,0,1,.235.066.271.271,0,0,1,.133.141c.023.052.044.1.1.1s.1-.042.108-.107a.785.785,0,0,0,.007-.277c-.023-.044-.089-.049-.127-.056" transform="translate(-47.755 -184.599)" fill="#585857"/>
    <path id="Path_15418" data-name="Path 15418" d="M71.4,241.924a.284.284,0,0,1-.113-.178,2.232,2.232,0,0,0-.325-.71.641.641,0,0,0,.384-.55.489.489,0,0,0-.218-.429.814.814,0,0,0-.4-.086l-.873-.016c-.054,0-.12.019-.12.1,0,.051.024.068.056.092l.026.018c.054.033.042.1.04.161l-.03,1.372c0,.061.007.126-.047.155l-.028.017c-.032.023-.059.04-.059.091,0,.077.063.1.117.1l.468.009c.052,0,.12-.016.122-.094a.1.1,0,0,0-.058-.093l-.026-.017c-.054-.035-.042-.1-.04-.159l.01-.513.243-.04a1.921,1.921,0,0,1,.288.675c0,.08-.108.07-.11.157s.086.1.145.1l.48.01c.045,0,.127,0,.129-.08,0-.051-.026-.064-.058-.087m-1.115-.955.012-.555a.322.322,0,0,1,.042-.19.262.262,0,0,1,.183-.052.324.324,0,0,1,.346.361c-.007.335-.353.434-.583.436" transform="translate(-53.863 -185.466)" fill="#585857"/>
    <path id="Path_15419" data-name="Path 15419" d="M79.062,240.924c-.063.007-.108.1-.14.157a.359.359,0,0,1-.328.187c-.33.038-.363.023-.4-.27l-.063-.5.365-.045c.166-.023.159.08.241.07.1-.012.065-.173.056-.25s-.024-.2-.11-.185-.044.11-.215.134l-.367.045-.066-.53a.09.09,0,0,1,.049-.092.621.621,0,0,1,.2-.051,1.151,1.151,0,0,1,.244-.007.293.293,0,0,1,.169.1c.037.042.068.077.12.072s.082-.068.073-.134a.752.752,0,0,0-.077-.267c-.033-.035-.1-.023-.138-.016l-1.132.143c-.054.007-.117.035-.106.112.007.052.035.064.07.084l.03.014c.056.026.054.092.063.152l.173,1.365c.009.059.026.124-.025.162l-.025.021a.1.1,0,0,0-.045.1c.01.075.078.087.131.08L79,241.426c.108-.014.127-.028.143-.152a1.066,1.066,0,0,0,.021-.267.1.1,0,0,0-.1-.084" transform="translate(-59.853 -184.986)" fill="#585857"/>
    <path id="Path_15420" data-name="Path 15420" d="M117.171,240.03a.321.321,0,0,0-.162-.023l-1.061.005c-.054,0-.12.019-.12.1,0,.05.028.07.061.092l.026.016c.054.031.045.1.045.159l0,1.377c0,.059.01.126-.044.157l-.026.019a.1.1,0,0,0-.059.091c0,.079.068.1.121.1l.466,0c.052,0,.119-.021.119-.1a.1.1,0,0,0-.059-.093l-.026-.017c-.056-.032-.045-.1-.045-.159l0-.6.358,0c.168,0,.15.1.232.1.1,0,.084-.164.084-.241s0-.2-.086-.2-.056.106-.23.106l-.358,0v-.487c0-.057-.007-.138.033-.178s.166-.042.215-.042a.416.416,0,0,1,.417.175c.028.037.059.077.106.077.079,0,.066-.1.065-.161-.009-.079-.01-.227-.07-.274" transform="translate(-89.525 -185.506)" fill="#585857"/>
    <path id="Path_15421" data-name="Path 15421" d="M126.614,240.964l-.028-.012c-.059-.021-.063-.087-.072-.148l-.246-1.354c-.01-.059-.033-.122.014-.162l.024-.021a.1.1,0,0,0,.042-.1c-.014-.077-.084-.085-.136-.075l-.457.082c-.052.009-.113.042-.1.117.009.052.038.064.073.08l.03.012c.058.023.061.089.072.148l.244,1.353c.01.061.033.124-.016.166l-.023.021a.1.1,0,0,0-.04.1c.012.079.082.087.134.077l.457-.084c.052-.009.113-.04.1-.117-.01-.051-.04-.063-.075-.08" transform="translate(-97.12 -184.794)" fill="#585857"/>
    <path id="Path_15422" data-name="Path 15422" d="M133.894,235.881a.574.574,0,0,1-.021-.094.13.13,0,0,1,.057-.108.087.087,0,0,0,.023-.11c-.035-.093-.136-.044-.188-.023l-.2.075c-.052.021-.159.052-.122.143a.087.087,0,0,0,.091.066.137.137,0,0,1,.115.042.578.578,0,0,1,.049.084l.344.888-.5-.387a7.4,7.4,0,0,0-.67-.485c-.085-.051-.1-.042-.183-.009l-.312.121c-.059.024-.129.054-.094.141.024.066.073.061.124.061.124,0,.147.1.194.218l.461,1.188a.413.413,0,0,1,.021.094.141.141,0,0,1-.057.11A.085.085,0,0,0,133,238c.035.093.134.045.187.025l.2-.077c.052-.021.159-.051.124-.145a.094.094,0,0,0-.093-.066.124.124,0,0,1-.115-.04.583.583,0,0,1-.049-.084l-.435-1.124,1.161.88c.063.05.216.181.276.215a.133.133,0,0,0,.134,0c.138-.056.127-.1.072-.246Z" transform="translate(-102.234 -182.033)" fill="#585857"/>
    <path id="Path_15423" data-name="Path 15423" d="M144.078,233.826h-.031c-.065,0-.089-.059-.122-.11l-.73-1.167c-.033-.051-.077-.1-.047-.155l.014-.03a.108.108,0,0,0,0-.11.1.1,0,0,0-.154-.019l-.394.248c-.045.028-.091.08-.049.145.028.045.059.045.1.049h.03c.064,0,.091.059.122.11l.731,1.166c.031.051.077.1.047.157l-.014.03a.1.1,0,0,0,0,.108c.04.068.107.049.154.019l.394-.246c.044-.028.091-.08.047-.146a.1.1,0,0,0-.1-.047" transform="translate(-110.178 -179.479)" fill="#585857"/>
    <path id="Path_15424" data-name="Path 15424" d="M150.731,227.172a.269.269,0,0,1-.206-.049,2.263,2.263,0,0,0-.726-.281.645.645,0,0,0-.108-.663.489.489,0,0,0-.455-.154.787.787,0,0,0-.351.22l-.635.595a.1.1,0,0,0-.021.154.1.1,0,0,0,.106.028l.032-.005c.061-.014.1.04.139.086l.935,1.005c.042.044.094.086.077.143l-.009.033a.105.105,0,0,0,.019.108.1.1,0,0,0,.154-.012l.344-.318a.1.1,0,0,0,.019-.154.1.1,0,0,0-.1-.028l-.031.007c-.061.014-.1-.042-.14-.086l-.349-.377.145-.2a1.908,1.908,0,0,1,.679.286c.054.059-.03.124.03.187s.129.01.173-.03l.349-.328c.035-.031.091-.091.038-.146-.037-.04-.065-.03-.1-.025m-1.464.094-.379-.408a.336.336,0,0,1-.1-.162.259.259,0,0,1,.094-.166.324.324,0,0,1,.5.017c.229.246.052.557-.113.719" transform="translate(-114.548 -174.692)" fill="#585857"/>
    <path id="Path_15425" data-name="Path 15425" d="M158.076,218.128a.094.094,0,0,0-.129.019c-.035.05.005.146.026.208a.362.362,0,0,1-.077.368c-.19.274-.223.288-.469.12l-.41-.277.208-.307c.092-.136.166-.065.213-.133s-.089-.164-.154-.208-.164-.112-.213-.04.059.106-.04.25l-.208.305-.441-.3a.1.1,0,0,1-.038-.1.644.644,0,0,1,.1-.181,1.033,1.033,0,0,1,.155-.188.269.269,0,0,1,.185-.063c.056,0,.1,0,.134-.045s0-.1-.052-.141a.756.756,0,0,0-.25-.119c-.05,0-.082.059-.1.091l-.642.946c-.03.045-.05.112.014.153a.1.1,0,0,0,.108,0l.032-.012c.056-.026.1.019.155.052l1.138.773c.049.033.11.063.107.124v.033a.1.1,0,0,0,.042.1.1.1,0,0,0,.148-.044l.672-.989c.061-.092.063-.115-.019-.209a1,1,0,0,0-.185-.19" transform="translate(-120.449 -167.953)" fill="#585857"/>
    <path id="Path_15426" data-name="Path 15426" d="M91.518,233.516c-.066.009-.112.11-.145.169a.384.384,0,0,1-.344.206c-.349.049-.382.033-.429-.279l-.079-.522.389-.059c.174-.025.167.084.256.07s.065-.185.052-.267-.031-.209-.12-.2-.044.12-.227.148l-.387.058-.084-.562a.106.106,0,0,1,.051-.1.745.745,0,0,1,.209-.056,1.317,1.317,0,0,1,.26-.014.291.291,0,0,1,.18.1c.042.044.077.082.133.073s.084-.073.073-.143a.81.81,0,0,0-.086-.281c-.038-.038-.106-.021-.146-.016l-1.2.18c-.058.009-.122.04-.112.122.009.054.04.068.077.087l.03.014c.061.025.063.094.072.159l.216,1.447c.009.061.03.131-.021.173l-.026.021a.112.112,0,0,0-.047.107c.014.082.085.092.141.085l1.256-.188c.117-.019.134-.032.15-.164a1.191,1.191,0,0,0,.016-.284.1.1,0,0,0-.108-.086" transform="translate(-69.378 -179.19)" fill="#585857"/>
    <path id="Path_15427" data-name="Path 15427" d="M99.054,232.083l-1.3-.272a.231.231,0,0,0-.119-.007.68.68,0,0,0-.115.23.5.5,0,0,0-.031.094.1.1,0,0,0,.072.134c.119.023.175-.223.466-.164.108.025.089.075.068.183l-.3,1.427c-.012.065-.016.133-.08.155l-.031.012c-.038.018-.068.028-.08.082-.017.082.047.119.1.129l.483.1c.056.011.129,0,.147-.077a.115.115,0,0,0-.042-.11l-.024-.023c-.049-.044-.025-.111-.01-.173l.3-1.429c.021-.108.026-.162.136-.14.29.061.243.309.359.333.061.014.106-.025.12-.092a.491.491,0,0,0,.007-.1.655.655,0,0,0-.012-.255c-.019-.026-.08-.037-.112-.042" transform="translate(-75.346 -179.161)" fill="#585857"/>
    <path id="Path_15428" data-name="Path 15428" d="M71.365,86.036a7.294,7.294,0,0,0-.63-3.755c2.523,0,5.1-.286,7.626-.286,2.235,0,4.27.976,4.27,3.469s-1.979,3.7-4.014,4.558v.056c2.666.6,4.959,1.663,4.959,4.759,0,4.53-3.44,5.848-7.338,5.848-1.949,0-3.871-.114-5.818-.114.944-2.036.944-4.989.944-7.2Zm2.581,3.9h.773c2.523,0,5.1-.8,5.1-3.841,0-2.579-1.749-2.953-4.1-2.953-.545,0-1.147.057-1.776.115Zm0,5.561c0,3.326,0,4.042,1.92,4.042,2.925,0,4.731-1.147,4.731-4.214,0-3.926-2.867-4.356-6.163-4.356h-.487Z" transform="translate(-54.43 -63.375)" fill="#cc1426"/>
    <path id="Path_15429" data-name="Path 15429" d="M229.888,49.02c0-1.93,0-4.159-.944-5.615,3.773,0,7.631-.429,11.4-.429,3.345,0,6.389,1.457,6.389,5.188s-2.958,5.53-6,6.816v.085c3.987.9,7.418,2.487,7.418,7.117,0,6.774-5.146,8.746-10.976,8.746-2.914,0-5.786-.171-8.7-.171,1.415-3.045,1.415-7.46,1.415-10.762Zm3.858,5.83H234.9c3.773,0,7.631-1.2,7.631-5.745,0-3.858-2.614-4.415-6.13-4.415-.815,0-1.715.085-2.658.171Zm0,8.317c0,4.974,0,6.045,2.872,6.045,4.373,0,7.074-1.715,7.074-6.3,0-5.874-4.288-6.516-9.217-6.516h-.729Z" transform="translate(-176.591 -33.216)" fill="#cc1426"/>
    <path id="Path_15430" data-name="Path 15430" d="M326.4,85.549a21.175,21.175,0,0,0-.171,2.4c0,3.986,1.8,7.8,6.26,7.8a7.266,7.266,0,0,0,5.188-2.016v.473c0,2.272-3.6,4.373-6.774,4.373-5.617,0-8.275-5.061-8.275-10.247,0-5.574,3.087-10.247,8.961-10.247,4.117,0,6.56,2.7,6.56,5.488,0,1.972-1.414,1.972-4.073,1.972Zm4.673-1.286c2.1,0,3.216,0,3.216-1.63a3.2,3.2,0,0,0-3.26-3.258c-2.7,0-3.858,2.616-4.373,4.888Z" transform="translate(-249.367 -60.356)" fill="#cc1426"/>
    <path id="Path_15431" data-name="Path 15431" d="M400.414,85.635c0-3.043,0-6-1.115-6.9,1.587-.044,3.087-.215,3.6-.215.771,0,.3,2.143.771,2.143.215,0,1.63-2.572,4.159-2.572,1.5,0,2.358.6,2.358,1.63a1.311,1.311,0,0,1-1.5,1.414c-.815,0-1.672-.127-2.7-.127-2.145,0-2.4,1.5-2.4,3.387v8.832c0,1.586,0,3.429.771,4.672h-4.717c.773-1.243.773-3.085.773-4.672Z" transform="translate(-308.626 -60.356)" fill="#cc1426"/>
    <path id="Path_15432" data-name="Path 15432" d="M525.4,85.549a21.189,21.189,0,0,0-.171,2.4c0,3.986,1.8,7.8,6.26,7.8a7.272,7.272,0,0,0,5.188-2.016v.473c0,2.272-3.6,4.373-6.774,4.373-5.616,0-8.275-5.061-8.275-10.247,0-5.574,3.087-10.247,8.961-10.247,4.115,0,6.558,2.7,6.558,5.488,0,1.972-1.413,1.972-4.071,1.972Zm4.673-1.286c2.1,0,3.216,0,3.216-1.63a3.2,3.2,0,0,0-3.258-3.258c-2.7,0-3.86,2.616-4.375,4.888Z" transform="translate(-403.174 -60.356)" fill="#cc1426"/>
    <path id="Path_15433" data-name="Path 15433" d="M597.778,63.169c.771-1.2.771-3.045.771-4.631V38.131c0-1.757,0-3.429-1.115-4.286l4.287-.686V58.537c0,1.586,0,3.431.773,4.631Z" transform="translate(-461.768 -25.629)" fill="#cc1426"/>
    <path id="Path_15434" data-name="Path 15434" d="M631.579,87.95c0,3.986,1.8,7.8,6.259,7.8a7.265,7.265,0,0,0,5.186-2.016v.473c0,2.272-3.6,4.373-6.773,4.373-5.617,0-8.275-5.061-8.275-10.247,0-5.574,3.087-10.247,8.961-10.247,4.115,0,6.558,2.7,6.558,5.488,0,1.972-1.413,1.972-4.073,1.972H631.75m4.673-1.286c2.1,0,3.216,0,3.216-1.63a3.2,3.2,0,0,0-3.26-3.258c-2.7,0-3.858,2.616-4.373,4.888Z" transform="translate(-485.375 -60.356)" fill="#cc1426"/>
    <path id="Path_15435" data-name="Path 15435" d="M680.2,80.237a27.786,27.786,0,0,0-1.759,3.773L672.4,99.487c-1.159,2.914-4.8,12.119-11.593,12.119-3.741,0-7.4-2.254-7.055-4.841,10.388,6.46,18.887-1.232,15.246-12.048l-1.53-5.177c-.642-2.187-2.229-7.5-3.686-9.3.857-.085,2.658-.256,3.171-.256.729,0,.944.386,1.2,1.242l3.686,12.561c.215.686.3,1.286.6,1.286.258,0,.429-.686.644-1.286l2.187-6.816a24.073,24.073,0,0,0,1.242-5.188,2.544,2.544,0,0,0-.471-1.543Z" transform="translate(-505.279 -61.819)" fill="#cc1426"/>
    <path id="Path_15436" data-name="Path 15436" d="M452.138,55.627c0-2.148-.044-4.855-.044-8.076,0-3.092.044-5.671.044-7.776,0-3.909-.173-6.184-1.333-6.959l4.384-.644V50.987c3.994-2.792,5.928-5.369,5.928-6.7a2.051,2.051,0,0,0-.344-1.2h4.338l-5.541,5.928a20.717,20.717,0,0,1-1.633,1.5c5.284,6.745,7.6,11.17,9.107,11.77h-4.467l-6.315-9.537c-.344-.559-.688-.859-.944-.859-.044,0-.087.044-.129.044v4.9c0,3.05.085,4.855.9,5.455h-4.9c.817-.515.946-2.748.946-6.657" transform="translate(-348.435 -24.866)" fill="#cc1426"/>
  </g>
</svg>
